<svg width="48" height="48" viewBox="0 0 48 48" fill="none" xmlns="http://www.w3.org/2000/svg">
<g id="material-symbols:add-photo-alternate-outline">
<path id="Vector" d="M10 42C8.9 42 7.958 41.608 7.174 40.824C6.39 40.04 5.99867 39.0987 6 38V10C6 8.9 6.392 7.958 7.176 7.174C7.96 6.39 8.90134 5.99867 10 6H28V10H10V38H38V20H42V38C42 39.1 41.608 40.042 40.824 40.826C40.04 41.61 39.0987 42.0013 38 42H10ZM34 18V14H30V10H34V6H38V10H42V14H38V18H34ZM12 34H36L28.5 24L22.5 32L18 26L12 34Z" fill="black"/>
</g>
</svg>
